PathFileType	4	(X/Y/Z)	/Users/visionmauri/1_6_1_f_Sports2D/1_6_1_f_Sports2D_px_person00.trc
DataRate	CameraRate	NumFrames	NumMarkers	Units	OrigDataRate	OrigDataStartFrame	OrigNumFrames
30.0	30.0	7	22	m	30.0	335	447
Frame#	Time	Hip			RHip			RKnee			RAnkle			RBigToe			RSmallToe			RHeel			LHip			LKnee			LAnkle			LBigToe			LSmallToe			LHeel			Neck			Head			Nose			RShoulder			RElbow			RWrist			LShoulder			LElbow			LWrist			
		X1	Y1	Z1	X2	Y2	Z2	X3	Y3	Z3	X4	Y4	Z4	X5	Y5	Z5	X6	Y6	Z6	X7	Y7	Z7	X8	Y8	Z8	X9	Y9	Z9	X10	Y10	Z10	X11	Y11	Z11	X12	Y12	Z12	X13	Y13	Z13	X14	Y14	Z14	X15	Y15	Z15	X16	Y16	Z16	X17	Y17	Z17	X18	Y18	Z18	X19	Y19	Z19	X20	Y20	Z20	X21	Y21	Z21	X22	Y22	Z22
335	11.191704035874439	544.9586429865744	852.4731754246096	0.0	484.2974534418643	868.2706984432009	0.0	494.10438824106245	1085.145161519804	0.0	507.39117864061154	1323.7891742560062	0.0	522.772453813426	1415.8773104477561	0.0	484.5158995783829	1408.1290815429948	0.0	512.6957637189399	1353.1902415723373	0.0	604.5600948361376	866.6003712228023	0.0	588.6537248014951	1051.6820416401383	0.0	563.8196400556393	1245.883704776947	0.0	565.406906126743	1349.3656441062435	0.0	593.3383428241898	1334.3206919621039	0.0	555.1359498730715	1267.0606613735144	0.0	560.0360619812996	521.3664048638268	0.0	566.1819777762528	371.9801145130591	0.0	560.7076558605654	490.5449521229748	0.0	443.6839579443497	554.3908050873429	0.0	407.7692485552848	679.9572894197037	0.0	371.3652015376581	803.8176626813918	0.0	674.2105799304219	561.7651129755028	0.0	711.5249824574631	709.225428642811	0.0	717.1130798911989	787.4291023366493	0.0
336	11.225112107623318	542.9602417692731	851.1675058738033	0.0	481.7971168352782	867.6578987789132	0.0	493.953189480136	1084.8139068878415	0.0	507.01799862544715	1326.2180475862767	0.0	522.3453745769586	1416.675092776861	0.0	484.3952280658957	1410.6230247328303	0.0	511.6306555459139	1356.7073299469116	0.0	601.9140965609112	866.196310416502	0.0	586.8345142032852	1053.2276675717617	0.0	564.5829157412234	1246.822955624086	0.0	564.4990462578704	1351.637285279576	0.0	593.6066989930989	1336.2711153586445	0.0	554.7322437805473	1265.1757254199147	0.0	557.0792719239965	519.5208082565146	0.0	563.9259054134993	369.6817401330628	0.0	557.4810603996557	489.5390824289863	0.0	440.65891205382616	551.6844799149278	0.0	404.9476131591793	676.4845115090853	0.0	369.59498121480806	801.9805711422252	0.0	671.8476815430971	559.1120625431483	0.0	711.5128696041452	706.4204409969395	0.0	715.8258018353552	799.0761924879838	0.0
337	11.258520179372196	540.8953008188662	850.5754583036763	0.0	479.73305110109476	866.6498701589628	0.0	492.91073740002236	1084.0882419743473	0.0	506.6587008070428	1327.6577542042837	0.0	523.3663535147755	1417.153156233951	0.0	484.3574951813995	1411.9092405952965	0.0	510.069905700995	1358.3687703077767	0.0	599.9455029198888	865.609652184831	0.0	586.2843569706823	1052.8988300246056	0.0	565.4882680986773	1249.1283713597923	0.0	564.0313060931426	1355.8066783023164	0.0	593.9750069612616	1340.908786523806	0.0	553.5220703175769	1268.9871238377734	0.0	554.2132335187733	516.4034298949706	0.0	561.3466348311399	367.4799615110459	0.0	553.6148974666453	486.20016677849594	0.0	437.3565820417667	548.5014418576264	0.0	401.5474342923317	673.7022788886135	0.0	367.2447633351468	801.5385327327887	0.0	669.2660868345704	555.7351287052322	0.0	709.7726003996554	704.6542639016168	0.0	714.8514187759823	793.6623695918295	0.0
338	11.291928251121076	539.2405784950641	850.2332280227942	0.0	477.9879415205558	865.3964142973203	0.0	491.1934682895978	1083.3687705892955	0.0	506.32071912131966	1327.6050814910618	0.0	525.4572246480984	1417.449761205123	0.0	484.90820166963164	1412.3117404517723	0.0	508.7297997144845	1357.7236726128435	0.0	599.2525760948165	863.983411387391	0.0	585.7933549348866	1050.4348327903192	0.0	566.5797595697704	1248.7043201044178	0.0	564.1286043620187	1356.266019199045	0.0	594.6798968777749	1342.127835035299	0.0	553.2205114183772	1271.9758960646168	0.0	551.9745981667663	512.6495023230473	0.0	558.9689244809572	364.17080418527775	0.0	549.9905769647019	480.76051542588266	0.0	434.15820871013085	545.3385364923317	0.0	397.96321455953984	672.2040785106586	0.0	363.84725753599486	802.1374436620598	0.0	666.4660743073503	551.8035139765818	0.0	705.7867786782792	704.5557287508102	0.0	713.7520448277729	775.2311212408399	0.0
339	11.325336322869955	538.1806695600378	848.6756784440873	0.0	476.1861671119565	863.9795807852591	0.0	489.4096769196434	1083.6393888351015	0.0	506.05048986533694	1326.587250061858	0.0	526.5695018711651	1417.4822183202516	0.0	485.5988515920543	1412.1678886507134	0.0	508.4124784193018	1356.386289430517	0.0	598.9150834052114	860.997216990464	0.0	585.2976292980904	1048.0305024543954	0.0	567.5713650453517	1245.8204717568346	0.0	564.7321618793485	1351.6001487129765	0.0	595.6232606076419	1336.68814127113	0.0	554.7485117998685	1270.3654300835037	0.0	550.0421515464326	509.5767850555105	0.0	557.4295296554093	360.0405089859363	0.0	548.2212020333328	476.2337998578881	0.0	431.6899794261099	542.5842487173151	0.0	394.44347937967564	672.3589924407589	0.0	359.51079745945714	803.5043454990996	0.0	663.1772637739253	548.026255710379	0.0	701.1023232487395	704.6325648857542	0.0	711.9459817707105	750.8933329342698	0.0
340	11.358744394618833	537.6502024789379	845.932965797735	0.0	474.95580425141276	863.019393804412	0.0	488.345451389941	1085.3961280208373	0.0	506.0457546679443	1325.1896094159315	0.0	525.9393154902623	1416.754068447054	0.0	485.7658252040738	1410.8827967987727	0.0	509.04510968290487	1355.0358388769137	0.0	598.165538907258	857.8562904620624	0.0	586.6149472121521	1047.1887910464059	0.0	568.1507129362408	1243.232904551905	0.0	565.6006542560931	1346.1892972433607	0.0	596.2864623341464	1329.5991296684426	0.0	557.1390556624087	1267.6558109680793	0.0	548.1161048307202	507.4600474973473	0.0	556.1908134040006	355.8465503697975	0.0	548.2756061052662	472.603323274354	0.0	430.00342201933427	540.3664070706992	0.0	390.2905343651809	674.4303067331796	0.0	355.39396107229885	805.4118410090931	0.0	660.022398317008	545.9722378906474	0.0	698.2585558485911	704.0634083040704	0.0	709.6871907355304	729.8606637115964	0.0
341	11.392152466367712	537.2458822690272	843.607458431251	0.0	474.934396057954	862.6023823128354	0.0	488.2690079869471	1087.1114427784817	0.0	506.0619361241603	1323.6282757811477	0.0	524.7994672226706	1415.2325432697542	0.0	485.56480407507667	1408.8012570256133	0.0	509.44238406119143	1353.2756027767527	0.0	597.4125032201885	856.0551313125397	0.0	590.1191377023771	1047.0567919184477	0.0	568.2070927846904	1241.305743064537	0.0	566.5488953079698	1343.6195094278603	0.0	596.5384543997657	1327.4445546303114	0.0	559.1035844229563	1266.1215627106103	0.0	546.1120432484817	505.48567914632497	0.0	554.6398799817024	351.56869313767663	0.0	548.6315313842105	467.53463683640365	0.0	428.21787427969235	539.1024601056652	0.0	385.242884631542	677.7547249888811	0.0	352.95999145609295	806.8808133634064	0.0	657.8231363831932	545.6096080371847	0.0	697.5810403034795	704.0015992151791	0.0	707.2470120677935	714.6036213677376	0.0
